<?xml version="1.0" standalone="no"?>
<!DOCTYPE svg PUBLIC "-//W3C//DTD SVG 20010904//EN"
 "http://www.w3.org/TR/2001/REC-SVG-20010904/DTD/svg10.dtd">
<svg version="1.0" xmlns="http://www.w3.org/2000/svg"
 width="607.000000pt" height="252.000000pt" viewBox="0 0 607.000000 252.000000"
 preserveAspectRatio="xMidYMid meet">

<g transform="translate(0.000000,252.000000) scale(0.100000,-0.100000)"
fill="#000000" stroke="none">
<path d="M3620 2320 c-20 -6 -21 -8 -5 -8 11 0 31 4 45 8 20 6 21 8 5 8 -11 0
-31 -4 -45 -8z"/>
<path d="M3665 2301 c-189 -68 -446 -269 -475 -371 l-9 -33 44 6 c53 5 194 71
280 129 140 95 239 204 233 257 -4 32 -13 34 -73 12z"/>
<path d="M4160 2217 c0 -8 26 -21 58 -31 327 -100 342 -106 342 -134 0 -15
-11 -50 -24 -79 l-25 -52 -78 20 c-43 11 -143 38 -222 60 -116 33 -145 38
-152 27 -6 -9 0 -16 24 -22 197 -58 242 -74 240 -84 -2 -6 4 -9 11 -6 8 3 46
-4 85 -16 l72 -21 -21 -30 c-24 -33 -40 -38 -40 -11 0 10 -7 19 -14 19 -12 0
-13 -5 -4 -21 9 -18 9 -19 -3 -10 -8 7 -33 13 -56 16 -39 3 -42 2 -37 -17 4
-13 -1 -10 -15 10 -12 17 -21 25 -21 18 0 -7 -10 -23 -22 -36 -13 -13 -72 -76
-131 -140 l-109 -117 -195 0 -196 0 -55 -47 c-228 -198 -558 -433 -764 -545
-34 -18 -55 -35 -51 -42 3 -6 3 -8 -2 -4 -11 10 -145 -63 -138 -75 3 -6 2 -7
-4 -4 -10 6 -85 -25 -111 -46 -8 -6 -22 -12 -32 -14 -10 -1 -49 -18 -87 -37
-37 -18 -108 -49 -158 -67 l-90 -34 58 -3 c31 -2 57 -7 57 -12 0 -6 7 -10 16
-10 12 0 14 3 6 13 -9 10 9 16 86 29 53 10 156 33 227 53 l130 36 268 -73
c147 -40 267 -76 267 -79 0 -8 -199 -63 -306 -84 -80 -15 -83 -15 -185 9 -57
13 -158 37 -224 51 -66 15 -145 33 -175 41 -36 9 -57 11 -64 4 -7 -7 1 -10 22
-11 18 -1 35 -2 40 -3 4 -2 25 -7 47 -14 22 -6 51 -13 65 -16 113 -24 322 -75
327 -80 4 -3 -5 -6 -18 -7 -19 -1 -18 -3 9 -9 43 -10 182 6 304 34 103 24 120
21 41 -9 -80 -31 -141 -64 -116 -65 26 0 166 53 288 110 229 106 851 271 1246
329 234 35 358 44 599 44 258 0 415 -11 709 -49 106 -14 195 -23 198 -21 5 6
-86 77 -97 77 -4 0 -72 9 -151 19 -79 11 -225 25 -324 32 l-180 11 -155 60
c-195 76 -375 140 -509 182 -80 26 -98 35 -80 39 49 13 377 27 464 21 50 -4
88 -4 85 -1 -3 3 -60 16 -125 28 -408 77 -1018 -46 -1826 -366 -342 -136 -379
-149 -351 -127 12 10 57 30 100 46 42 15 89 33 104 38 15 6 25 15 21 21 -3 5
-1 7 5 3 6 -3 61 15 124 40 163 67 515 187 685 234 80 22 153 45 162 52 288
221 564 533 626 708 19 55 19 133 0 170 -16 32 -34 43 -96 66 l-41 14 31 -35
c27 -32 41 -65 26 -65 -3 0 -91 25 -195 55 -104 30 -192 55 -195 55 -3 0 -5
-6 -5 -13z m261 -430 c-10 -9 -11 -8 -5 6 3 10 9 15 12 12 3 -3 0 -11 -7 -18z
m216 -600 c103 -35 266 -92 362 -128 l173 -64 -143 -7 c-79 -4 -197 -12 -261
-18 -64 -7 -122 -9 -129 -4 -8 4 -10 3 -5 -4 5 -8 -1 -12 -18 -12 -14 0 -27 4
-30 9 -3 5 -25 7 -49 5 -35 -3 -38 -2 -17 6 21 8 20 9 -13 5 -29 -3 -37 -1
-34 9 6 16 -46 15 -65 -2 -10 -8 -18 -8 -28 0 -13 8 -12 9 2 5 9 -3 19 0 21 8
6 15 -1 25 -17 25 -6 0 -4 -5 4 -10 8 -5 11 -10 7 -10 -4 0 -18 7 -31 15 -27
18 -89 10 -64 -7 9 -7 7 -8 -7 -3 -11 4 -35 11 -53 17 -27 8 -31 12 -21 24 15
18 23 18 15 -1 -4 -12 3 -15 39 -13 24 0 42 5 39 9 -3 5 -19 5 -37 2 -29 -6
-31 -5 -18 11 12 14 12 16 -4 10 -12 -5 -16 -4 -12 3 5 8 -2 8 -22 0 -25 -9
-33 -8 -49 6 -17 16 -49 16 -74 1 -7 -5 -8 -3 -3 6 6 10 1 11 -21 6 -28 -7
-28 -7 -9 8 19 15 19 16 -7 6 -18 -6 -29 -6 -33 0 -4 6 1 10 9 10 8 0 17 3 19
8 3 4 -11 7 -31 7 -31 0 -37 3 -34 20 2 18 1 18 -10 4 -16 -19 -48 -32 -48
-18 0 6 -10 8 -22 4 -17 -4 -19 -3 -8 3 41 25 426 110 502 111 32 1 105 -19
235 -62z m-480 -124 c0 -8 -6 -9 -19 -2 -10 5 -18 11 -18 12 0 2 8 3 18 3 10
0 19 -6 19 -13z m293 -83 c0 -5 -5 -10 -11 -10 -5 0 -7 -5 -3 -12 4 -7 3 -8
-4 -4 -6 4 -9 13 -5 21 6 17 23 20 23 5z m-1017 -33 c-3 -6 -2 -7 4 -4 6 4 24
2 42 -3 19 -5 31 -5 31 1 0 5 13 0 29 -12 17 -12 36 -19 46 -15 9 3 13 2 10
-4 -3 -6 -1 -10 4 -10 6 0 11 5 11 11 0 5 5 7 10 4 6 -4 8 -10 5 -15 -3 -4 2
-11 11 -14 8 -3 12 -2 9 4 -7 12 -3 12 19 4 9 -3 14 -10 11 -14 -3 -5 3 -6 13
-3 10 2 45 -5 78 -17 32 -12 74 -21 91 -20 25 0 31 -3 27 -15 -7 -17 7 -20 22
-5 5 5 15 6 22 1 8 -5 -7 -12 -42 -21 l-55 -13 -253 83 c-185 61 -247 85 -233
91 27 10 43 11 27 0 -9 -5 -2 -8 20 -8 18 0 25 2 16 4 -10 3 -18 9 -18 14 0 4
11 4 25 -3 13 -6 22 -15 18 -21z m1130 -4 c-7 -2 -19 -2 -25 0 -7 3 -2 5 12 5
14 0 19 -2 13 -5z m-1068 -92 c121 -38 230 -73 242 -78 18 -7 -24 -24 -202
-84 l-223 -77 -241 68 c-132 38 -255 71 -272 75 -17 4 -27 11 -22 15 4 5 67
26 138 48 72 22 175 55 230 74 55 19 107 33 115 32 8 -2 114 -35 235 -73z
m-820 -1 c3 -6 -1 -7 -9 -4 -18 7 -21 14 -7 14 6 0 13 -4 16 -10z m-33 -62
c-5 -5 -22 -8 -38 -5 -28 4 -28 4 4 6 22 1 31 5 26 13 -5 7 -3 8 5 3 8 -5 9
-11 3 -17z m-107 -8 c-3 -5 -14 -10 -23 -10 -15 0 -15 2 -2 10 20 13 33 13 25
0z"/>
<path d="M4188 1073 c7 -3 16 -2 19 1 4 3 -2 6 -13 5 -11 0 -14 -3 -6 -6z"/>
<path d="M990 2130 l-35 -7 45 -3 c115 -6 111 -14 -25 -49 -71 -19 -132 -36
-134 -38 -18 -14 28 -8 160 23 169 39 181 39 308 -9 l53 -21 -63 -18 c-35 -11
-101 -29 -146 -41 -46 -11 -83 -25 -83 -29 0 -12 15 -10 119 16 125 31 197 46
224 46 18 0 20 -2 7 -11 -12 -9 -10 -10 8 -6 26 6 52 -1 52 -13 0 -4 -12 -6
-26 -4 -18 2 -24 -1 -20 -11 3 -8 0 -17 -6 -21 -7 -4 -8 -3 -4 4 4 7 3 12 -3
12 -5 0 -12 -4 -15 -8 -7 -12 63 -44 77 -36 7 4 9 4 5 -1 -7 -7 55 -55 72 -55
10 0 152 -81 148 -85 -43 -35 -113 -101 -113 -107 0 -4 56 -46 125 -92 l124
-85 61 53 c33 28 89 74 123 101 l64 49 -26 21 c-46 36 -277 172 -393 229 -297
148 -560 224 -683 196z"/>
<path d="M2848 2053 c7 -3 16 -2 19 1 4 3 -2 6 -13 5 -11 0 -14 -3 -6 -6z"/>
<path d="M2839 2026 c-128 -52 -349 -234 -349 -286 0 -20 4 -22 36 -17 140 23
404 225 404 310 0 23 -23 21 -91 -7z"/>
<path d="M550 1915 c0 -55 272 -241 393 -271 86 -20 -35 125 -169 204 -125 73
-224 102 -224 67z"/>
<path d="M510 1906 c0 -8 5 -18 10 -21 6 -3 10 1 10 9 0 8 -4 18 -10 21 -5 3
-10 -1 -10 -9z"/>
<path d="M4446 1855 c-9 -26 -7 -32 5 -12 6 10 9 21 6 23 -2 3 -7 -2 -11 -11z"/>
<path d="M3258 1713 c7 -3 16 -2 19 1 4 3 -2 6 -13 5 -11 0 -14 -3 -6 -6z"/>
<path d="M3185 1700 c-25 -11 1 -11 35 0 20 6 21 8 5 8 -11 0 -29 -3 -40 -8z"/>
<path d="M3247 1685 c-188 -69 -471 -284 -527 -401 -29 -59 -20 -68 55 -49
132 34 327 151 449 269 76 73 106 120 106 164 0 27 -4 32 -22 31 -13 0 -40 -7
-61 -14z"/>
<path d="M2756 1677 c3 -10 9 -15 12 -12 3 3 0 11 -7 18 -10 9 -11 8 -5 -6z"/>
<path d="M2747 1643 c-4 -3 -7 -11 -7 -17 0 -6 5 -5 12 2 6 6 9 14 7 17 -3 3
-9 2 -12 -2z"/>
<path d="M660 1605 c0 -39 153 -157 260 -201 72 -29 70 -29 70 -4 0 49 -166
170 -277 203 -44 13 -53 14 -53 2z"/>
<path d="M631 1594 c0 -11 3 -14 6 -6 3 7 2 16 -1 19 -3 4 -6 -2 -5 -13z"/>
<path d="M1238 1599 c-3 -9 -2 -22 2 -30 13 -19 18 -8 10 21 -4 19 -7 21 -12
9z"/>
<path d="M1280 1595 c0 -45 234 -228 346 -271 44 -17 45 -17 69 6 14 13 25 29
25 36 0 7 -23 32 -50 56 -132 116 -390 230 -390 173z"/>
<path d="M2218 1573 c7 -3 16 -2 19 1 4 3 -2 6 -13 5 -11 0 -14 -3 -6 -6z"/>
<path d="M2229 1551 c-120 -51 -297 -190 -334 -262 -21 -40 -13 -49 36 -38
141 32 389 222 389 298 0 38 -7 38 -91 2z"/>
<path d="M1120 1280 c0 -35 155 -157 254 -200 102 -43 113 -17 27 63 -67 61
-130 100 -210 128 -62 22 -71 23 -71 9z"/>
<path d="M2188 1213 c7 -3 16 -2 19 1 4 3 -2 6 -13 5 -11 0 -14 -3 -6 -6z"/>
<path d="M2120 1200 c-13 -9 -13 -10 0 -9 8 0 24 4 35 9 l20 9 -20 0 c-11 0
-27 -4 -35 -9z"/>
<path d="M2192 1190 c-204 -72 -482 -300 -482 -395 0 -14 6 -16 38 -10 162 30
452 233 507 355 16 35 16 43 4 55 -12 12 -22 11 -67 -5z"/>
<path d="M2925 1109 c-248 -159 -553 -321 -754 -401 -42 -16 -83 -37 -91 -46
-14 -14 -13 -15 2 -3 9 7 21 10 26 7 23 -14 384 151 598 274 218 126 390 241
377 254 -10 10 -12 9 -158 -85z"/>
<path d="M1332 735 c0 -16 2 -22 5 -12 2 9 2 23 0 30 -3 6 -5 -1 -5 -18z"/>
<path d="M1341 692 c-1 -23 29 -71 52 -83 20 -10 19 -9 -5 17 -15 16 -31 40
-37 54 -5 14 -10 19 -10 12z"/>
<path d="M1815 618 c-125 -34 -315 -46 -380 -24 -11 3 -4 -1 15 -11 53 -26
227 -21 350 9 69 18 88 26 70 29 -14 3 -39 2 -55 -3z"/>
<path d="M2282 495 c0 -16 2 -22 5 -12 2 9 2 23 0 30 -3 6 -5 -1 -5 -18z"/>
<path d="M2290 455 c0 -21 33 -56 73 -78 37 -19 57 -22 167 -22 117 0 241 20
290 45 23 13 -57 5 -150 -15 -183 -38 -315 -20 -360 49 -11 17 -20 26 -20 21z"/>
</g>
</svg>
